<?xml version="1.0" encoding="UTF-8"?>
<svg version="1.1" xmlns="http://www.w3.org/2000/svg" width="232" height="284">
<path d="M0 0 C76.56 0 153.12 0 232 0 C232 93.72 232 187.44 232 284 C155.44 284 78.88 284 0 284 C0 190.28 0 96.56 0 0 Z " fill="#FEFEFE" transform="translate(0,0)"/>
<path d="M0 0 C7.59 0 15.18 0 23 0 C23 5.94 23 11.88 23 18 C44.12 18 65.24 18 87 18 C87 28.56 87 39.12 87 50 C65.88 50 44.76 50 23 50 C23 69.14 23 88.28 23 108 C44.12 108 65.24 108 87 108 C87 138.36 87 168.72 87 200 C65.88 200 44.76 200 23 200 C23 205.28 23 210.56 23 216 C15.08 216 7.16 216 -1 216 C-1 210.72 -1 205.44 -1 200 C-23.11 200 -45.22 200 -68 200 C-68 189.44 -68 178.88 -68 168 C-45.56 168 -23.12 168 0 168 C0 148.86 0 129.72 0 110 C-22.44 110 -44.88 110 -68 110 C-68 79.64 -68 49.28 -68 18 C-45.56 18 -23.12 18 0 18 C0 12.06 0 6.12 0 0 Z " fill="#0A2209" transform="translate(99,5)"/>
<path d="M0 0 C6.6 0 13.2 0 20 0 C20 70.29 20 140.58 20 213 C13.73 213 7.46 213 1 213 C0.05446562 178.31914972 -0.08300372 143.69555679 0 109 C-22.77 109 -45.54 109 -69 109 C-68.01 108.01 -68.01 108.01 -67 107 C-66.81186179 104.19850486 -66.7482499 101.49663997 -66.77294922 98.69482422 C-66.77265717 97.83621796 -66.77236511 96.97761169 -66.77206421 96.09298706 C-66.77346078 93.24678543 -66.78903727 90.40084356 -66.8046875 87.5546875 C-66.80841647 85.58456566 -66.81126399 83.61444198 -66.81326294 81.64431763 C-66.82090854 76.45256452 -66.84056496 71.26092286 -66.8626709 66.06921387 C-66.8831094 60.7740225 -66.89226038 55.47881317 -66.90234375 50.18359375 C-66.92380999 39.78901346 -66.95795708 29.39451599 -67 19 C-66.18789566 18.98969254 -65.37579132 18.97938507 -64.53907776 18.96876526 C-56.90163512 18.87096021 -49.26427678 18.76847052 -41.62696934 18.66066074 C-37.70015386 18.60539585 -33.77333099 18.5519703 -29.84643555 18.50268555 C-26.05979158 18.45509439 -22.27324084 18.40275376 -18.48670769 18.34705925 C-17.03898362 18.32661182 -15.59123397 18.30790276 -14.14346504 18.29092598 C-12.12235841 18.26693492 -10.1013339 18.23629925 -8.08032227 18.20532227 C-6.92782486 18.18977798 -5.77532745 18.1742337 -4.58790588 18.15821838 C-2.07029411 18.29117368 -2.07029411 18.29117368 -1 17 C-0.76284045 14.13944586 -0.57809383 11.30272344 -0.4375 8.4375 C-0.293125 5.653125 -0.14875 2.86875 0 0 Z " fill="#31CB31" transform="translate(100,6)"/>
<path d="M0 0 C20.46 0 40.92 0 62 0 C62 29.04 62 58.08 62 88 C41.54 88 21.08 88 0 88 C0 58.96 0 29.92 0 0 Z " fill="#31CB31" transform="translate(122,115)"/>
<path d="M0 0 C5.94 0 11.88 0 18 0 C18 69.96 18 139.92 18 212 C12.06 212 6.12 212 0 212 C0 142.04 0 72.08 0 0 Z " fill="#FEFEFE" transform="translate(101,7)"/>
<path d="M0 0 C21.45 0 42.9 0 65 0 C65 9.24 65 18.48 65 28 C43.55 28 22.1 28 0 28 C0 18.76 0 9.52 0 0 Z " fill="#36C836" transform="translate(33,175)"/>
<path d="M0 0 C20.46 0 40.92 0 62 0 C62 9.24 62 18.48 62 28 C41.54 28 21.08 28 0 28 C0 18.76 0 9.52 0 0 Z " fill="#31CB32" transform="translate(122,25)"/>
<path d="M0 0 C6.6 0 13.2 0 20 0 C20 70.29 20 140.58 20 213 C19.67 213 19.34 213 19 213 C19 143.04 19 73.08 19 1 C13.06 1 7.12 1 1 1 C1 55.78 1 110.56 1 167 C0.67 167 0.34 167 0 167 C0 147.86 0 128.72 0 109 C-22.77 109 -45.54 109 -69 109 C-68.01 108.01 -68.01 108.01 -67 107 C-66.81186179 104.19850486 -66.7482499 101.49663997 -66.77294922 98.69482422 C-66.77265717 97.83621796 -66.77236511 96.97761169 -66.77206421 96.09298706 C-66.77346078 93.24678543 -66.78903727 90.40084356 -66.8046875 87.5546875 C-66.80841647 85.58456566 -66.81126399 83.61444198 -66.81326294 81.64431763 C-66.82090854 76.45256452 -66.84056496 71.26092286 -66.8626709 66.06921387 C-66.8831094 60.7740225 -66.89226038 55.47881317 -66.90234375 50.18359375 C-66.92380999 39.78901346 -66.95795708 29.39451599 -67 19 C-66.18789566 18.98969254 -65.37579132 18.97938507 -64.53907776 18.96876526 C-56.90163512 18.87096021 -49.26427678 18.76847052 -41.62696934 18.66066074 C-37.70015386 18.60539585 -33.77333099 18.5519703 -29.84643555 18.50268555 C-26.05979158 18.45509439 -22.27324084 18.40275376 -18.48670769 18.34705925 C-17.03898362 18.32661182 -15.59123397 18.30790276 -14.14346504 18.29092598 C-12.12235841 18.26693492 -10.1013339 18.23629925 -8.08032227 18.20532227 C-6.92782486 18.18977798 -5.77532745 18.1742337 -4.58790588 18.15821838 C-2.07029411 18.29117368 -2.07029411 18.29117368 -1 17 C-0.76284045 14.13944586 -0.57809383 11.30272344 -0.4375 8.4375 C-0.293125 5.653125 -0.14875 2.86875 0 0 Z M-65 21 C-65 48.72 -65 76.44 -65 105 C-44.87 105 -24.74 105 -4 105 C-2.79586085 101.38758254 -2.86026104 98.0912016 -2.87060547 94.33154297 C-2.86885315 93.55242554 -2.86710083 92.77330811 -2.86529541 91.97058105 C-2.8608927 89.39442724 -2.86380876 86.81834201 -2.8671875 84.2421875 C-2.86651414 82.45525092 -2.86554385 80.66831444 -2.86428833 78.88137817 C-2.86281362 75.1372185 -2.86495918 71.39308268 -2.86962891 67.64892578 C-2.8753343 62.83886766 -2.87204064 58.02886522 -2.86605644 53.21880913 C-2.86245176 49.53007585 -2.86358884 45.84135589 -2.86618423 42.15262222 C-2.86685334 40.37831745 -2.86602567 38.60401148 -2.86370468 36.8297081 C-2.86117879 34.35632853 -2.86501745 31.88304067 -2.87060547 29.40966797 C-2.86858124 28.6699173 -2.86655701 27.93016663 -2.86447144 27.16799927 C-2.58045834 23.79822175 -2.58045834 23.79822175 -4 21 C-5.90243762 20.90608704 -7.80838459 20.88256342 -9.71313477 20.88647461 C-10.95148071 20.88659546 -12.18982666 20.88671631 -13.46569824 20.88684082 C-15.43367371 20.89451477 -15.43367371 20.89451477 -17.44140625 20.90234375 C-19.23862122 20.90385437 -19.23862122 20.90385437 -21.07214355 20.90539551 C-25.5689387 20.91064695 -30.06572026 20.92460805 -34.5625 20.9375 C-44.606875 20.958125 -54.65125 20.97875 -65 21 Z " fill="#49AF48" transform="translate(100,6)"/>
<path d="M0 0 C0.33 0 0.66 0 1 0 C1.69557772 34.67208893 2.15195579 69.32031171 2 104 C8.27 104 14.54 104 21 104 C21 98.06 21 92.12 21 86 C21.33 86.66 21.66 87.32 22 88 C22.55328979 87.99777939 23.10657959 87.99555878 23.67663574 87.99327087 C29.51830387 87.97087367 35.3599595 87.95595243 41.20166016 87.94506836 C43.3719126 87.94008851 45.54216179 87.93330221 47.71240234 87.92456055 C60.18597608 87.87563328 72.56250313 87.97926909 85 89 C85 89.33 85 89.66 85 90 C64.54 90 44.08 90 23 90 C23 95.28 23 100.56 23 106 C15.08 106 7.16 106 -1 106 C-1 100.72 -1 95.44 -1 90 C-23.11 90 -45.22 90 -68 90 C-68 79.44 -68 68.88 -68 58 C-45.56 58 -23.12 58 0 58 C0 38.86 0 19.72 0 0 Z M-66 60 C-66 69.24 -66 78.48 -66 88 C-44.55 88 -23.1 88 -1 88 C-1 78.76 -1 69.52 -1 60 C-22.45 60 -43.9 60 -66 60 Z " fill="#182418" transform="translate(99,115)"/>
<path d="M0 0 C6.6 0 13.2 0 20 0 C20 70.29 20 140.58 20 213 C19.67 213 19.34 213 19 213 C19 143.04 19 73.08 19 1 C13.06 1 7.12 1 1 1 C1 55.78 1 110.56 1 167 C0.67 167 0.34 167 0 167 C0 147.86 0 128.72 0 109 C-22.77 109 -45.54 109 -69 109 C-69 108.67 -69 108.34 -69 108 C-46.89 107.67 -24.78 107.34 -2 107 C-2.01160156 100.58691406 -2.02320312 94.17382812 -2.03515625 87.56640625 C-2.04026294 83.51497295 -2.04507671 79.4635436 -2.04882812 75.41210938 C-2.05481683 68.97484518 -2.06191786 62.53759515 -2.07543945 56.1003418 C-2.08626745 50.91325157 -2.09227665 45.72617651 -2.09487724 40.53907585 C-2.09673165 38.5554372 -2.10035256 36.57179942 -2.10573006 34.58816719 C-2.11293932 31.81990864 -2.11399099 29.05171362 -2.11352539 26.28344727 C-2.11712067 25.45482681 -2.12071594 24.62620636 -2.12442017 23.7724762 C-2.11405216 18.11405216 -2.11405216 18.11405216 -1 17 C-0.76284045 14.13944586 -0.57809383 11.30272344 -0.4375 8.4375 C-0.293125 5.653125 -0.14875 2.86875 0 0 Z " fill="#495249" transform="translate(100,6)"/>
<path d="M0 0 C20.46 0 40.92 0 62 0 C62 29.04 62 58.08 62 88 C41.54 88 21.08 88 0 88 C0 58.96 0 29.92 0 0 Z M2 2 C1.20664018 6.76015892 0.8622231 11.06702228 0.88647461 15.84130859 C0.88632858 16.60296326 0.88618256 17.36461792 0.8860321 18.14935303 C0.88672482 20.64907754 0.89448701 23.14872612 0.90234375 25.6484375 C0.90421021 27.38864094 0.90563304 29.12884491 0.90663147 30.86904907 C0.91043869 35.43598903 0.92025358 40.00289689 0.93133545 44.56982422 C0.94339276 50.05649655 0.94796036 55.54317965 0.95378876 61.02986145 C0.96346636 69.35326325 0.98263545 77.6765947 1 86 C20.47 86 39.94 86 60 86 C60 58.28 60 30.56 60 2 C40.86 2 21.72 2 2 2 Z " fill="#49BB49" transform="translate(122,115)"/>
<path d="M0 0 C7.26 0 14.52 0 22 0 C22 6.27 22 12.54 22 19 C21.67 19 21.34 19 21 19 C21 13.06 21 7.12 21 1 C14.4 1 7.8 1 1 1 C1 6.61 1 12.22 1 18 C0.67 18 0.34 18 0 18 C0 12.06 0 6.12 0 0 Z M-68 18 C-45.56 18 -23.12 18 0 18 C-0.33 18.66 -0.66 19.32 -1 20 C-22.45 20 -43.9 20 -66 20 C-66 49.04 -66 78.08 -66 108 C-44.55 108 -23.1 108 -1 108 C-1 108.33 -1 108.66 -1 109 C-23.11 109 -45.22 109 -68 109 C-68 78.97 -68 48.94 -68 18 Z " fill="#001300" transform="translate(99,5)"/>
<path d="M0 0 C0.33 0 0.66 0 1 0 C1.15583926 7.36434959 1.303956 14.72881536 1.4429636 22.093503 C1.50777944 25.5154638 1.57497887 28.93733863 1.64819336 32.35913086 C1.96971957 47.62184051 2.15875555 62.76943303 1 78 C0.67 78 0.34 78 0 78 C0 72.06 0 66.12 0 60 C-21.78 60 -43.56 60 -66 60 C-66 69.24 -66 78.48 -66 88 C-44.55 88 -23.1 88 -1 88 C-1 88.33 -1 88.66 -1 89 C-23.11 89 -45.22 89 -68 89 C-68 78.77 -68 68.54 -68 58 C-45.56 58 -23.12 58 0 58 C0 38.86 0 19.72 0 0 Z " fill="#002300" transform="translate(99,115)"/>
<path d="M0 0 C20.46 0 40.92 0 62 0 C62 9.24 62 18.48 62 28 C41.54 28 21.08 28 0 28 C0 18.76 0 9.52 0 0 Z M2.17573547 3.21586609 C0.62444039 5.56989744 0.65599596 7.07977782 0.70703125 9.88671875 C0.71669922 10.82451172 0.72636719 11.76230469 0.73632812 12.72851562 C0.76146484 13.70498047 0.78660156 14.68144531 0.8125 15.6875 C0.82603516 16.67556641 0.83957031 17.66363281 0.85351562 18.68164062 C0.88887797 21.12164231 0.93822967 23.56054719 1 26 C8.54498233 26.02312851 16.08996101 26.04091769 23.63497066 26.05181217 C27.13808885 26.05703989 30.64118285 26.0641355 34.14428711 26.07543945 C38.16780841 26.08834206 42.19130414 26.09322912 46.21484375 26.09765625 C48.11012062 26.10539818 48.11012062 26.10539818 50.04368591 26.11329651 C51.78537804 26.11340981 51.78537804 26.11340981 53.56225586 26.11352539 C54.59039902 26.115746 55.61854218 26.11796661 56.67784119 26.12025452 C58.9613511 26.26184609 58.9613511 26.26184609 60 25 C60.3811199 21.72304193 60.47006902 18.41956174 60.625 15.125 C60.6765625 14.20074219 60.728125 13.27648437 60.78125 12.32421875 C60.82507813 11.43605469 60.86890625 10.54789063 60.9140625 9.6328125 C60.9548291 8.81699707 60.9955957 8.00118164 61.03759766 7.16064453 C61.10472339 4.81471311 61.10472339 4.81471311 60 2 C52.75038346 1.93050076 45.5008387 1.87718938 38.25095654 1.84456348 C34.88455123 1.82890489 31.51837377 1.80766379 28.15209961 1.77368164 C24.28232751 1.73738251 20.41287974 1.7202925 16.54296875 1.70703125 C15.33352097 1.69154739 14.12407318 1.67606354 12.87797546 1.66011047 C11.19657219 1.65977058 11.19657219 1.65977058 9.48120117 1.65942383 C7.99894295 1.64943108 7.99894295 1.64943108 6.48674011 1.63923645 C3.98688485 1.8201944 3.98688485 1.8201944 2.17573547 3.21586609 Z " fill="#4BBA4A" transform="translate(122,25)"/>
<path d="M0 0 C4.12878237 -0.54914839 7.89291875 -0.78254475 12 0 C15.0544104 2.59852825 17.03980585 5.5213456 19 9 C19.33 6.36 19.66 3.72 20 1 C19.34 0.67 18.68 0.34 18 0 C20.7302389 -0.1083667 23.45614543 -0.18746694 26.1875 -0.25 C26.95642578 -0.28351563 27.72535156 -0.31703125 28.51757812 -0.3515625 C32.46523544 -0.41933344 34.52953194 -0.27581266 38.01171875 1.765625 C40.08881656 4.09980957 40.68486457 4.93493377 40.625 8 C40.39365737 11.02438176 40.03281798 11.95473383 38.1875 14.5 C33.49964664 16.70604864 29.09556265 16.32126139 24 16 C24.99 15.67 25.98 15.34 27 15 C27 10.38 27 5.76 27 1 C25.35 1 23.7 1 22 1 C22 5.95 22 10.9 22 16 C18.37180514 12.37180514 15.20558373 8.93828859 12 5 C11.67 8.3 11.34 11.6 11 15 C11.66 15.33 12.32 15.66 13 16 C11.35 16 9.7 16 8 16 C8.66 15.67 9.32 15.34 10 15 C9.67 10.71 9.34 6.42 9 2 C7.35 1.67 5.7 1.34 4 1 C4 5.62 4 10.24 4 15 C4.66 15.33 5.32 15.66 6 16 C4.02 16 2.04 16 0 16 C0.66 15.67 1.32 15.34 2 15 C2 10.38 2 5.76 2 1 C1.34 0.67 0.68 0.34 0 0 Z " fill="#0B0CFF" transform="translate(31,257)"/>
<path d="M0 0 C1.64547318 0.00666183 1.64547318 0.00666183 3.32418823 0.01345825 C4.56532379 0.01360931 5.80645935 0.01376038 7.08520508 0.01391602 C8.4446529 0.02413003 9.8040991 0.03456204 11.1635437 0.04519653 C12.55073849 0.04892619 13.93793591 0.05177339 15.32513428 0.05377197 C18.97813171 0.0614122 22.63097037 0.08106388 26.28390503 0.10317993 C30.01068942 0.12363007 33.73750021 0.1328814 37.46432495 0.14285278 C44.77826731 0.16324861 52.09177354 0.20239345 59.4057312 0.24050903 C59.4057312 10.80050903 59.4057312 21.36050903 59.4057312 32.24050903 C45.52183897 32.29817837 31.66023472 32.07256523 17.7807312 31.74050903 C15.69479809 31.69214239 13.6088606 31.64396424 11.5229187 31.59597778 C6.48380326 31.47965315 1.44475332 31.36080569 -3.5942688 31.24050903 C-3.5942688 30.91050903 -3.5942688 30.58050903 -3.5942688 30.24050903 C16.5357312 30.24050903 36.6657312 30.24050903 57.4057312 30.24050903 C57.4057312 21.00050903 57.4057312 11.76050903 57.4057312 2.24050903 C36.9457312 2.24050903 16.4857312 2.24050903 -4.5942688 2.24050903 C-2.5942688 0.24050903 -2.5942688 0.24050903 0 0 Z " fill="#001600" transform="translate(126.59426879882813,22.759490966796875)"/>
<path d="M0 0 C1.98 0 3.96 0 6 0 C5.01 0.495 5.01 0.495 4 1 C4.33 4.96 4.66 8.92 5 13 C9.47702364 14.06537205 9.47702364 14.06537205 12 14 C12.33 9.71 12.66 5.42 13 1 C12.34 0.67 11.68 0.34 11 0 C13.4377963 -0.05397335 15.87439685 -0.09365616 18.3125 -0.125 C19.00279297 -0.14175781 19.69308594 -0.15851563 20.40429688 -0.17578125 C24.17135396 -0.21217794 25.78431704 -0.14378864 29 2 C29.1875 4.625 29.1875 4.625 29 7 C28.01 7.495 28.01 7.495 27 8 C27.57344937 10.86724686 27.8614515 11.8614515 30 14 C32.475 14.495 32.475 14.495 35 15 C35 10.38 35 5.76 35 1 C34.34 0.67 33.68 0.34 33 0 C36.96 0 40.92 0 45 0 C44.67 0.66 44.34 1.32 44 2 C41.69 1.67 39.38 1.34 37 1 C37 2.98 37 4.96 37 7 C38.98 7 40.96 7 43 7 C43 7.33 43 7.66 43 8 C41.02 8 39.04 8 37 8 C37 10.31 37 12.62 37 15 C41.64586892 14.51515724 41.64586892 14.51515724 46 13 C45.67 13.99 45.34 14.98 45 16 C42.26843041 16.16262928 39.54657878 16.28110686 36.8125 16.375 C36.04357422 16.42527344 35.27464844 16.47554688 34.48242188 16.52734375 C28.80993314 16.67341642 28.80993314 16.67341642 26.40380859 14.67285156 C25.18745265 13.17820338 24.08633597 11.59165609 23 10 C22.34 9.67 21.68 9.34 21 9 C21 10.98 21 12.96 21 15 C21.66 15.33 22.32 15.66 23 16 C20.69 16 18.38 16 16 16 C16.99 15.67 17.98 15.34 19 15 C19 10.38 19 5.76 19 1 C17.35 1 15.7 1 14 1 C14.03480469 1.83144531 14.06960937 2.66289062 14.10546875 3.51953125 C14.13253906 4.60621094 14.15960938 5.69289063 14.1875 6.8125 C14.22230469 7.89144531 14.25710937 8.97039062 14.29296875 10.08203125 C14 13 14 13 12.67578125 14.86328125 C10.06649976 16.63321345 8.0622653 16.38278316 5 16 C3.32421875 14.86328125 3.32421875 14.86328125 2 13 C1.70703125 10.08203125 1.70703125 10.08203125 1.8125 6.8125 C1.83957031 5.72582031 1.86664063 4.63914062 1.89453125 3.51953125 C1.92933594 2.68808594 1.96414062 1.85664063 2 1 C1.34 0.67 0.68 0.34 0 0 Z " fill="#272DFF" transform="translate(141,257)"/>
<path d="M0 0 C0.07589394 6.37199294 0.1285335 12.74386991 0.16479492 19.11621094 C0.179907 21.28520056 0.20039735 23.4541595 0.22631836 25.62304688 C0.26259534 28.73575396 0.2797019 31.84805805 0.29296875 34.9609375 C0.30845261 35.934935 0.32393646 36.9089325 0.33988953 37.91244507 C0.34011612 38.81322784 0.34034271 39.71401062 0.34057617 40.64208984 C0.35056892 41.83455826 0.35056892 41.83455826 0.36076355 43.05111694 C0.24171158 43.69424835 0.12265961 44.33737976 0 45 C-0.99 45.66 -1.98 46.32 -3 47 C-3 41.72 -3 36.44 -3 31 C-25.11 31 -47.22 31 -70 31 C-70 30.67 -70 30.34 -70 30 C-47.89 30 -25.78 30 -3 30 C-3 20.43 -3 10.86 -3 1 C-1 0 -1 0 0 0 Z " fill="#3C503B" transform="translate(101,174)"/>
<path d="M0 0 C0.33 0 0.66 0 1 0 C1.15583926 7.36434959 1.303956 14.72881536 1.4429636 22.093503 C1.50777944 25.5154638 1.57497887 28.93733863 1.64819336 32.35913086 C1.96971957 47.62184051 2.15875555 62.76943303 1 78 C0.67 78 0.34 78 0 78 C-0.495 69.09 -0.495 69.09 -1 60 C-33.67 59.505 -33.67 59.505 -67 59 C-67 58.67 -67 58.34 -67 58 C-44.89 58 -22.78 58 0 58 C0 38.86 0 19.72 0 0 Z " fill="#000700" transform="translate(99,115)"/>
<path d="M0 0 C3.96 0 7.92 0 12 0 C11.67 0.66 11.34 1.32 11 2 C8.69 1.67 6.38 1.34 4 1 C4 2.98 4 4.96 4 7 C5.98 7 7.96 7 10 7 C10 7.33 10 7.66 10 8 C8.02 8 6.04 8 4 8 C4 10.31 4 12.62 4 15 C8.64586892 14.51515724 8.64586892 14.51515724 13 13 C12.67 13.99 12.34 14.98 12 16 C9.26843041 16.16262928 6.54657878 16.28110686 3.8125 16.375 C3.04357422 16.42527344 2.27464844 16.47554688 1.48242188 16.52734375 C-4.19006686 16.67341642 -4.19006686 16.67341642 -6.59619141 14.67285156 C-7.81254735 13.17820338 -8.91366403 11.59165609 -10 10 C-10.66 9.67 -11.32 9.34 -12 9 C-12 10.98 -12 12.96 -12 15 C-11.34 15.33 -10.68 15.66 -10 16 C-12.31 16 -14.62 16 -17 16 C-16.01 15.67 -15.02 15.34 -14 15 C-14 12.69 -14 10.38 -14 8 C-12.88625 7.71125 -11.7725 7.4225 -10.625 7.125 C-6.99708908 6.30758671 -6.99708908 6.30758671 -5 4 C-5.226875 5.093125 -5.45375 6.18625 -5.6875 7.3125 C-6.34810791 10.83424295 -6.34810791 10.83424295 -4.875 12.875 C-2.62862856 14.36576583 -2.62862856 14.36576583 2 15 C2 10.38 2 5.76 2 1 C1.34 0.67 0.68 0.34 0 0 Z " fill="#0518FF" transform="translate(174,257)"/>
<path d="M0 0 C2.3431213 0.25561323 4.67843403 0.59270772 7 1 C8.59211531 4.18423061 8.38981631 7.53417863 8 11 C6.8125 13 6.8125 13 5 14 C3.35 14 1.7 14 0 14 C0 9.38 0 4.76 0 0 Z " fill="#FCFAFF" transform="translate(60,258)"/>
<path d="M0 0 C4.21722395 -0.77066021 7.80940134 -1.00514359 12 0 C15.87331053 3.50518598 18.66197138 7.29243293 21 12 C20.67 12.99 20.34 13.98 20 15 C17.36 11.7 14.72 8.4 12 5 C11.67 8.3 11.34 11.6 11 15 C11.66 15.33 12.32 15.66 13 16 C11.35 16 9.7 16 8 16 C8.66 15.67 9.32 15.34 10 15 C9.67 10.71 9.34 6.42 9 2 C7.35 1.67 5.7 1.34 4 1 C4 5.62 4 10.24 4 15 C4.66 15.33 5.32 15.66 6 16 C4.02 16 2.04 16 0 16 C0.66 15.67 1.32 15.34 2 15 C2 10.38 2 5.76 2 1 C1.34 0.67 0.68 0.34 0 0 Z " fill="#230AFF" transform="translate(31,257)"/>
<path d="M0 0 C1.65 0 3.3 0 5 0 C6 1 6 1 6.09765625 3.94140625 C6.08605469 5.13636719 6.07445312 6.33132813 6.0625 7.5625 C6.05347656 8.76003906 6.04445313 9.95757812 6.03515625 11.19140625 C6.02355469 12.11824219 6.01195312 13.04507812 6 14 C2.25 15.125 2.25 15.125 0 14 C0 9.38 0 4.76 0 0 Z " fill="#EEF9FF" transform="translate(35,258)"/>
<path d="M0 0 C3.96 0 7.92 0 12 0 C11.67 0.66 11.34 1.32 11 2 C8.69 1.67 6.38 1.34 4 1 C4 2.98 4 4.96 4 7 C5.98 7 7.96 7 10 7 C10 7.33 10 7.66 10 8 C8.02 8 6.04 8 4 8 C4 10.31 4 12.62 4 15 C8.64586892 14.51515724 8.64586892 14.51515724 13 13 C12.67 13.99 12.34 14.98 12 16 C8.04 16 4.08 16 0 16 C0.66 15.67 1.32 15.34 2 15 C2 10.38 2 5.76 2 1 C1.34 0.67 0.68 0.34 0 0 Z " fill="#0317FF" transform="translate(111,257)"/>
<path d="M0 0 C5.28 0 10.56 0 16 0 C16 0.33 16 0.66 16 1 C14.35 1 12.7 1 11 1 C11 5.62 11 10.24 11 15 C10.67 15 10.34 15 10 15 C9.67 10.71 9.34 6.42 9 2 C7.35 1.67 5.7 1.34 4 1 C4 5.95 4 10.9 4 16 C0.875 9.75 0.875 9.75 1.4375 5.375 C1.53933594 4.55773437 1.64117187 3.74046875 1.74609375 2.8984375 C1.82988281 2.27195312 1.91367187 1.64546875 2 1 C1.34 0.67 0.68 0.34 0 0 Z " fill="#2546FF" transform="translate(49,257)"/>
<path d="M0 0 C0.721875 0.103125 1.44375 0.20625 2.1875 0.3125 C1.56875 0.60125 0.95 0.89 0.3125 1.1875 C-1.94575765 2.24970042 -1.94575765 2.24970042 -3.8125 4.3125 C-4.05537489 6.75262949 -4.05537489 6.75262949 -3.9375 9.4375 C-3.91945312 10.34757812 -3.90140625 11.25765625 -3.8828125 12.1953125 C-3.85960937 12.89398438 -3.83640625 13.59265625 -3.8125 14.3125 C-0.8425 14.8075 -0.8425 14.8075 2.1875 15.3125 C2.1875 15.6425 2.1875 15.9725 2.1875 16.3125 C-4.21953902 15.82894989 -4.21953902 15.82894989 -6.75 13.625 C-8.1738395 10.5260552 -8.36403827 8.69067188 -7.8125 5.3125 C-5.37508357 2.10903841 -4.07219987 0.45246665 0 0 Z " fill="#2522FF" transform="translate(133.8125,256.6875)"/>
<path d="M0 0 C1 3 1 3 0.4375 5 C0.293125 5.66 0.14875 6.32 0 7 C0.99 8.485 0.99 8.485 2 10 C-1 10 -1 10 -3.6875 7.5 C-4.450625 6.675 -5.21375 5.85 -6 5 C-6 6.98 -6 8.96 -6 11 C-5.34 11.33 -4.68 11.66 -4 12 C-6.31 12 -8.62 12 -11 12 C-10.01 11.67 -9.02 11.34 -8 11 C-8 8.69 -8 6.38 -8 4 C-6.865625 3.71125 -5.73125 3.4225 -4.5625 3.125 C-3.386875 2.75375 -2.21125 2.3825 -1 2 C-0.67 1.34 -0.34 0.68 0 0 Z " fill="#1722FF" transform="translate(168,261)"/>
<path d="M0 0 C0.66 0 1.32 0 2 0 C2.226875 0.7425 2.45375 1.485 2.6875 2.25 C4.24407532 5.51139591 6.08518854 6.92894975 9 9 C8.67 10.65 8.34 12.3 8 14 C6.35 14.33 4.7 14.66 3 15 C3.99 14.34 4.98 13.68 6 13 C5.87822312 11.08533633 5.87822312 11.08533633 5 9 C4.154375 8.54625 3.30875 8.0925 2.4375 7.625 C1.633125 7.08875 0.82875 6.5525 0 6 C-0.3125 2.8125 -0.3125 2.8125 0 0 Z " fill="#0F1BFF" transform="translate(100,258)"/>
<path d="M0 0 C2.475 0.495 2.475 0.495 5 1 C5 2.65 5 4.3 5 6 C3.35 6.33 1.7 6.66 0 7 C0 4.69 0 2.38 0 0 Z " fill="#FBF5FF" transform="translate(162,258)"/>
<path d="M0 0 C0.66 0 1.32 0 2 0 C2 4.62 2 9.24 2 14 C-0.95016944 8.09966113 -0.93495748 6.44081822 0 0 Z " fill="#778FFF" transform="translate(51,259)"/>
<path d="M0 0 C0.33 0 0.66 0 1 0 C1 1.98 1 3.96 1 6 C1.66 6.33 2.32 6.66 3 7 C1.35 8.32 -0.3 9.64 -2 11 C-2 8 -2 8 -1 7 C-0.63239269 4.67182036 -0.29758419 2.3381615 0 0 Z " fill="#563EFF" transform="translate(68,262)"/>
<path d="M0 0 C0.66 0 1.32 0 2 0 C4.125 4.625 4.125 4.625 3 8 C2.01 7.34 1.02 6.68 0 6 C-0.1875 2.875 -0.1875 2.875 0 0 Z " fill="#1F27FF" transform="translate(100,258)"/>
</svg>
